<svg id="Capa_1" data-name="Capa 1" xmlns="http://www.w3.org/2000/svg" viewBox="0 0 877.57 408"><defs><style>.cls-1{fill:#3975a6;}</style></defs><path d="M479.81,63.18H466l-25.7,66.64h14.92l5.26-13.31h25l5.06,13.31h14.93Zm.31,39.33H465.75L473,84.07Z"/><polygon points="526.6 129.82 541.08 129.82 541.08 77.31 552.86 77.31 552.86 63.18 515.13 63.18 515.13 77.31 526.6 77.31 526.6 129.82"/><polygon points="600.53 116.09 582.6 116.09 582.6 63.18 568.29 63.18 568.29 129.82 600.53 129.82 600.53 116.09"/><path d="M631.41,116.51h25l5.06,13.31h14.94L650.77,63.18H636.92l-25.7,66.64h14.93Zm5.31-14,7.2-18.44,7.17,18.44Z"/><path d="M713.64,116.15a6.87,6.87,0,0,1-4.67,1.61c-3.64,0-7-2.71-9.87-8.05l-.49-.92-12,7.26.42.83c2.5,5,5.57,8.68,9.12,11a22.45,22.45,0,0,0,12.58,3.55c6.13,0,11.19-1.84,15-5.46a18.31,18.31,0,0,0,5.81-13.87,19.12,19.12,0,0,0-1.65-8,27.07,27.07,0,0,0-5.5-7.51c-1-1.06-3.84-3.51-8.61-7.49-4.94-4.19-7.93-6.93-8.87-8.15a3.94,3.94,0,0,1-.9-2.47,2.81,2.81,0,0,1,1.19-2.16,5,5,0,0,1,3.31-1.06c3,0,6,2.11,9,6.26l.65.9,10.68-9.43-.64-.75c-3.47-4-6.77-6.86-9.78-8.41a21.08,21.08,0,0,0-9.68-2.35,18.8,18.8,0,0,0-13.33,5.09,16.27,16.27,0,0,0-5.44,12.26,18,18,0,0,0,3.24,9.89c2.13,3.24,6.66,7.66,13.85,13.52a47,47,0,0,1,7,6.54,6.42,6.42,0,0,1,1.43,3.8A4.48,4.48,0,0,1,713.64,116.15Z"/><polygon points="451.02 239.82 465.5 239.82 465.5 187.31 477.28 187.31 477.28 173.18 439.55 173.18 439.55 187.31 451.02 187.31 451.02 239.82"/><path d="M507.86,213.34l14.06,26.48h15.72l-15.57-29.21a17.62,17.62,0,0,0,11.84-17.67,20.58,20.58,0,0,0-2.91-11,16.71,16.71,0,0,0-7.77-6.74c-3.18-1.34-8.3-2-15.64-2h-14v66.64h14.31Zm2.85-14.89h-2.85V187.18h2.37c3.91,0,5.63.33,6.4.62a5,5,0,0,1,2.46,1.88,5.22,5.22,0,0,1,.92,3.11c0,2.05-.59,3.46-1.79,4.29C517.33,197.71,515.3,198.45,510.71,198.45Z"/><path d="M598.51,239.82h14.93l-25.63-66.64H574l-25.7,66.64h14.92l5.26-13.31h25Zm-10.39-27.31H573.75L581,194.07Z"/><path d="M673.14,232.25a29.46,29.46,0,0,0,7.09-10.75,40.84,40.84,0,0,0-2-33,28.43,28.43,0,0,0-11.7-11.76c-4.69-2.39-11.89-3.6-21.4-3.6H629.54v66.64h15.8c8.55,0,14.42-.53,17.95-1.63A25.15,25.15,0,0,0,673.14,232.25Zm-24.67-6.43h-4.71V187h3.18c7.33,0,12.7,1.62,15.95,4.82,3.62,3.57,5.46,8.7,5.46,15.26a23.09,23.09,0,0,1-2.3,10.79,13.83,13.83,0,0,1-5.79,6.09C657.88,225.21,653.91,225.82,648.47,225.82Z"/><rect x="700.64" y="173.18" width="14.22" height="66.64"/><polygon points="775.21 213.34 749.38 173.63 749.09 173.18 735.74 173.18 735.74 239.82 750.05 239.82 750.05 199.78 776.13 239.82 789.51 239.82 789.51 173.18 775.21 173.18 775.21 213.34"/><path d="M877.45,205H843V218.6h18.09a17.19,17.19,0,0,1-5.95,6.54,19.39,19.39,0,0,1-10.24,2.53,21.87,21.87,0,0,1-15.8-6.22,20.44,20.44,0,0,1-6.38-15.15,19.91,19.91,0,0,1,6.14-14.67,21.1,21.1,0,0,1,15.29-6c7,0,13.19,2.83,18.45,8.39l.7.74,10.08-10-.65-.71a37.39,37.39,0,0,0-12.47-9.3,41.18,41.18,0,0,0-16.17-3.2c-11,0-20.06,3.91-26.94,11.63a33.53,33.53,0,0,0-8.74,23,35.83,35.83,0,0,0,4.73,17.94A33.13,33.13,0,0,0,826,237a37.63,37.63,0,0,0,18.44,4.5,33.57,33.57,0,0,0,16.89-4.13,32,32,0,0,0,11.75-12,32.87,32.87,0,0,0,4.53-16.62Z"/><path d="M475.84,311.66c-1-1.06-3.85-3.51-8.61-7.49-4.94-4.19-7.93-6.93-8.87-8.15a3.94,3.94,0,0,1-.9-2.47,2.83,2.83,0,0,1,1.18-2.16,5,5,0,0,1,3.32-1.06c3,0,6,2.11,9,6.26l.65.9,10.68-9.43-.64-.75c-3.48-4-6.77-6.86-9.79-8.41a21,21,0,0,0-9.67-2.35,18.78,18.78,0,0,0-13.33,5.09,16.25,16.25,0,0,0-5.45,12.26,18,18,0,0,0,3.25,9.89c2.13,3.23,6.66,7.66,13.85,13.52a46.21,46.21,0,0,1,7,6.54,6.43,6.43,0,0,1,1.44,3.8,4.48,4.48,0,0,1-1.81,3.5,6.88,6.88,0,0,1-4.68,1.61c-3.63,0-6.95-2.71-9.86-8.05l-.5-.92-12,7.26.42.83c2.5,5,5.57,8.68,9.12,11a22.43,22.43,0,0,0,12.58,3.55c6.13,0,11.19-1.84,15-5.46A18.31,18.31,0,0,0,483,327.12a19.12,19.12,0,0,0-1.65-7.95A27.07,27.07,0,0,0,475.84,311.66Z"/><path d="M533.24,276.55a35.1,35.1,0,0,0-24.82,59.53c6.59,6.88,15,10.37,24.91,10.37a33.2,33.2,0,0,0,24.35-10.1,33.8,33.8,0,0,0,10-24.65,34.14,34.14,0,0,0-10.17-24.92A33.18,33.18,0,0,0,533.24,276.55Zm-.13,14a19.35,19.35,0,0,1,14.37,6.09,21.82,21.82,0,0,1,0,29.83,19.16,19.16,0,0,1-14.2,6,20.22,20.22,0,0,1-13.09-4.66c-4.93-4-7.33-9.29-7.33-16.18a20.86,20.86,0,0,1,5.83-15.17A19.41,19.41,0,0,1,533.11,290.59Z"/><path d="M617.29,319.44c0,4.19-.28,7-.83,8.44a6.8,6.8,0,0,1-2.86,3.32,9.25,9.25,0,0,1-5.06,1.34,8.88,8.88,0,0,1-4.73-1.19,6.64,6.64,0,0,1-2.73-3.12c-.57-1.36-.86-3.8-.86-7.25v-42.8H585.87v39.54c0,7.92.76,13.43,2.33,16.83a19.92,19.92,0,0,0,7.83,8.52,23.87,23.87,0,0,0,12.77,3.38,25.41,25.41,0,0,0,9.79-1.77,20.59,20.59,0,0,0,7.51-5.47,20.34,20.34,0,0,0,4.4-7.68c.77-2.63,1.14-7.15,1.14-13.81V278.18H617.29Z"/><path d="M690.88,309.18a19,19,0,0,0,3.24-11.24,20.58,20.58,0,0,0-2.91-11,16.76,16.76,0,0,0-7.77-6.74c-3.19-1.34-8.3-2-15.65-2h-14v66.64h14.3V318.34l14.06,26.48h15.72l-15.56-29.21A19,19,0,0,0,690.88,309.18Zm-10.67-11.39c0,2-.58,3.46-1.78,4.29-.89.63-2.92,1.37-7.51,1.37h-2.86V292.18h2.38c3.9,0,5.63.33,6.39.62a5,5,0,0,1,2.47,1.88A5.28,5.28,0,0,1,680.21,297.79Z"/><path d="M746.18,290.46c7,0,13.4,3,19,9l.69.73,10-9.55-.62-.72a38.26,38.26,0,0,0-28.93-13.34,36.43,36.43,0,0,0-18,4.7,33.61,33.61,0,0,0-12.9,12.45,34.74,34.74,0,0,0-4.51,17.69c0,10.19,3.33,18.67,9.9,25.21s15.1,9.85,25.38,9.85a38.26,38.26,0,0,0,14.94-2.78c4.34-1.85,9-5.18,13.84-9.9l.71-.7L766,322.92l-.73.72a34.26,34.26,0,0,1-9.45,7.07,22.63,22.63,0,0,1-9.38,1.92,22.14,22.14,0,0,1-10.93-2.74,19.11,19.11,0,0,1-7.56-7.49,22.17,22.17,0,0,1-2.68-11,20.65,20.65,0,0,1,20.95-21Z"/><polygon points="793.35 344.82 830.64 344.82 830.64 330.74 807.57 330.74 807.57 315.73 830.64 315.73 830.64 301.91 807.57 301.91 807.57 292.22 830.64 292.22 830.64 278.18 793.35 278.18 793.35 344.82"/><rect x="370.54" width="13" height="408"/><path class="cls-1" d="M304.9,260.56,303.62,263c.26-.83.63-1.83,1.09-3s.91-2.43,1.45-3.79c-1.4,3.26-3.06,6.54-4.67,9.94s-3.45,6.79-5.41,10.16a203.22,203.22,0,0,1-12.68,19.95A216.92,216.92,0,0,1,269,314.08c-2.5,2.65-4.86,5.3-7.3,7.64-1.21,1.18-2.35,2.39-3.52,3.48l-3.43,3.2c-6.92,5.26-13.18,9.87-13.46,11-.13.58,1.31.22,3.67-1,1.19-.6,2.62-1.38,4.22-2.33s3.3-2.17,5.12-3.47c1.66-1.06,3.47-2.49,4.69-3.25,2.75-1.68,5.45-3.74,8.33-5.85s5.71-4.55,8.52-7.22A139.85,139.85,0,0,0,292.67,298l-3.34,3.93c-1.13,1.31-2.33,2.56-3.48,3.8l2.49-2.87c.84-.95,1.6-2,2.4-3l2.41-3.14c.79-1.07,1.54-2.23,2.33-3.4-.44.42-1,.95-1.46,1.36a113.59,113.59,0,0,0,14.54-24.74,99.28,99.28,0,0,0,7-23.65c.74-6,.25-8.08-1-6.65s-3.3,6.37-6.52,14.15C307,256,306,258.32,304.9,260.56Z"/><path class="cls-1" d="M286.41,285.55a159.35,159.35,0,0,0,14.8-24.4l1-1.61-1.45.09v.2c-2.2,8.58-8.36,22-16.11,33.09l-2.68,4a15.26,15.26,0,0,0-2.16,3.82c-.11.64.62.23,1.88-1a45,45,0,0,0,4.91-5.76c1.51-1.93,2.82-4,4.23-6a121.57,121.57,0,0,0,7.86-12.71c.67-1.16,1.27-2.36,1.85-3.58s1.18-2.45,1.76-3.67c1.15-2.46,2.12-5,3.12-7.44s1.71-4.94,2.47-7.28,1.24-4.65,1.74-6.75.77-4.1,1-5.85c.12-.87.21-1.69.28-2.45s.06-1.47.05-2.11c0-2.29-1.08-.52-1.76-.18-.38-.43-1,1-2,3.43-.48,1.25-1,2.77-1.56,4.51s-1.28,3.65-1.94,5.72C301,257.89,298.46,265,299,265.88c-.7,1.31-1.41,2.67-2.1,4,.41-1.09.82-2.2,1.23-3.31a32.73,32.73,0,0,1-2.3,6.56c-1.28,2.78-2.77,6-4.18,8.6-.75,1.29-1.45,2.61-2.24,3.88l-2.38,3.8,4.51-3.14,2.2-4.2c-.26.27-.72.8-.7.74a184.25,184.25,0,0,0,10.53-25c.58-2,1.18-3.91,1.74-5.88l1.47-5.94c.32-1.63.22-2.43,0-2.37s-.7.94-1.42,2.6l-2,5c.32-.75.65-1.49,1-2.23a151.42,151.42,0,0,1-16.72,33.45,35.19,35.19,0,0,0-2.71,4.51C284.58,287.72,285.24,287.16,286.41,285.55Z"/><path class="cls-1" d="M304.38,246.16a41.69,41.69,0,0,0,2.06-6.44l.15-1.21c-.36,1-.84,2.34-1.32,3.68C304.36,244.83,304,246.23,304.38,246.16Z"/><path class="cls-1" d="M306.59,238.51l.4-1.12.14-.42c-.14.35-.3.68-.45,1l-.06.31Z"/><path class="cls-1" d="M26.65,114.08A161.43,161.43,0,0,1,67.66,73a156.16,156.16,0,0,1,53.1-23.63,8.64,8.64,0,0,0,2.36-.76,4.79,4.79,0,0,0-2.16.26A156.48,156.48,0,0,0,67.72,72.4a161.62,161.62,0,0,0-41.16,41,7.65,7.65,0,0,0-1.26,2.25C25.38,115.8,25.93,115.07,26.65,114.08Z"/><path class="cls-1" d="M268.32,109.23c-.64-.58-.71-.47-.2.26a17.53,17.53,0,0,0,1.86,2.3c.51.5.61.38.2-.26A15.38,15.38,0,0,0,268.32,109.23Z"/><path class="cls-1" d="M256,110.19a93.68,93.68,0,0,0-9.89-8.6,16.24,16.24,0,0,1-1.65-1.45c.07.34-.71-.12-2-1.14a143.92,143.92,0,0,0-45-22.76,130.5,130.5,0,0,0-50.89-4.83,4.71,4.71,0,0,1-1.39.59,35.34,35.34,0,0,1-4.92,1.12c-2,.39-4.4.83-6.8,1.19l-3.63.63A128.66,128.66,0,0,0,88.36,91c-1.21.93-2.58,1.85-4,2.92S81.53,96,80,97.21a140.37,140.37,0,0,0-26,28.53c.61-.57,1-.86,1.18-.75s-.24,1-.86,2a42.24,42.24,0,0,1-2.45,3.87c-1,1.45-1.87,3-2.83,4.45l2.09-3.15c.7-1,1.48-2,2.21-3.07,1.44-2.07,3.08-4,4.63-5.95a19,19,0,0,1,1.32-1.51A137.7,137.7,0,0,1,70.71,109.4a131.57,131.57,0,0,1,63-33.75,130,130,0,0,1,70,4.27,10,10,0,0,1,2.47,1c.39.28.25.38-.57.09a125.38,125.38,0,0,0-42.12-6,134.9,134.9,0,0,0-21.26,2.35,140,140,0,0,0-22,6.08A121.73,121.73,0,0,0,94.92,96.22a127.71,127.71,0,0,0-21.63,18,125.35,125.35,0,0,0-28.73,48,113.44,113.44,0,0,0-6.18,28.35,118,118,0,0,0,1.14,28.43l.66,3.49c.11.58.2,1.17.33,1.75l.42,1.73.82,3.46,1,3.43.49,1.71.57,1.7L45,239.6l1.3,3.34.65,1.68c.23.55.49,1.09.73,1.65l1.47,3.29c.53,1.08,1.07,2.16,1.61,3.25l.81,1.62c.28.54.59,1.06.88,1.6.6,1.06,1.19,2.12,1.78,3.19l1.93,3.12,1,1.56,1,1.52,2.09,3.06c.74,1,1.48,2,2.23,3A123.16,123.16,0,0,0,91.12,298.6a117.57,117.57,0,0,0,35,16,109.6,109.6,0,0,0,18.82,3.48,120,120,0,0,0,19.14.35,115.3,115.3,0,0,0,37.33-8.78c17.91-7.54,32.54-18.21,36.2-18.11,1.09.08,1,1.13,0,3a36.11,36.11,0,0,1-6.32,7.41c1.41-1,2.68-2.07,4-3.09,1.1-.77,2.14-1.61,3.19-2.46s2.11-1.65,3.12-2.54c1.42-1.27,2.85-2.44,4.17-3.59s2.54-2.28,3.74-3.29,2.22-2,3.24-2.9l1.46-1.22c.45-.4.87-.76,1.28-1.1,1.46-1.27,3-2.5,4.38-3.87a54.9,54.9,0,0,0,5-4.46l2.6-2.64,2.52-2.82c1.73-1.86,3.22-3.83,4.74-5.57s2.76-3.39,4-4.63l.1,1.67.88-1.31c2.67-4.45,4.67-7.44,5.83-8.31l.74.82c.71,1.46.65,4.29-.13,8.69.44,0,.61.68.46,1.86,2.47-3,4.07-4.29,4-1,1.16-2,1.41-1.49.56,1.15a31.08,31.08,0,0,1-1.25,3l0,0c.77-1,1-1.34,2-2.8l1.56-3.3c1.31-2.79,1.81-4.26,2.36-5.58s1.1-2.56,1.94-5.09c.84-2.15,1.62-3.86,2.13-5.06s.78-1.86.78-1.86c3-4.52,3-4.58,3.53-3.61,0,.31,0,.66-.05,1,.34-1,.56-1.76.72-2.38l.39-1.41c.2-.71.3-1.05.45-1.6.37-1.12.69-1.89.69-1.89.44-.1.44-.1.73-.78.2-.2.34-.12.34-.12,0,2.39,0,2.4.07,2.49,0,.57-.06,1.34-.06,1.34-.43,2.74-.6,3.84-.72,4.29l-2.52,5.49c0,.67,0,1,0,1.17v.17l-.87,1.18.66-.62-1.15,2.78,1.39-3.15c-1.14,3.35-1.7,5-2.1,6.21s-.68,1.83-1.16,3.16-1,2.67-1.34,3.65-.63,1.62-.68,1.76c.22-.17.32-.15.32-.15-1.55,3.47-2.31,5.21-3.19,6.86-.42.84-.84,1.67-1.37,2.7-.26.52-.55,1.08-.88,1.72l-1.21,2.14c-.41.56-.75,1-1.07,1.38a18.15,18.15,0,0,1-1.59,3.21l-2.05,3.29-.37.74h0c-.59,1.18-1,2-1.56,2.88l-.33.59,0,0-2.34,4.07-2.12,3.33c-.84,1.33-1.81,2.88-3.09,4.64-1.49,1.76-2.85,3.42-4.28,4.86.49-.44,1-.87,1.4-1.29.87-.85.47.26.92-.23a145.13,145.13,0,0,0,27.34-43.93c.53-1.5,1.1-2.93,1.6-4a7.88,7.88,0,0,1,1.07-2.07c.43-.3.06,2-1.07,5.07a132.76,132.76,0,0,1-11.11,26.31,140.84,140.84,0,0,1-17.49,24.73A144.25,144.25,0,0,1,254,327.21,142.12,142.12,0,0,1,229,342a160.73,160.73,0,0,1-27.49,10.52l1.4-.24c-2.45.73-5,1.21-7.44,1.79l-.8.2,5.78-.82c1.31-.28,2.6-.65,3.91-1,21.93-6.71,40.93-16.42,58.31-30.64a166.88,166.88,0,0,0,24.13-23.9c1.78-2.37,3.2-3.89,3.23-3.44s-1.45,2.8-3.2,5.14A153.19,153.19,0,0,1,267,321.73a150,150,0,0,1-24,17.94,142.88,142.88,0,0,1-25.73,12.2,132.63,132.63,0,0,1-24.43,6.18l-5.05,1.05c-1.67.3-3.33.52-4.94.75a84.94,84.94,0,0,1-9.06.75l-.31,0,4.32.07c-5.18.55-8,.21-12.73.34.56.24,1.24.46,1.8.69a165.84,165.84,0,0,1-39.1-2.91,139,139,0,0,1-35.58-12.29c-.86-.42-1.64-.83-2.42-1.24A127.66,127.66,0,0,1,61.35,329.4l4.84,3.71,5,3.51a125,125,0,0,1-21.68-16.05,138.61,138.61,0,0,1-24.21-29.5,107.15,107.15,0,0,1-11.79-26.5,157,157,0,0,1,6.7-140.77c.61-1.1,1.23-2.11,1.76-2.89a5.76,5.76,0,0,1,1.21-1.4c.34-.09-.38,1.41-1.57,3.61A160.34,160.34,0,0,0,4.13,172.18a157.64,157.64,0,0,0-.57,52.28A163.69,163.69,0,0,1,2.2,202.55a155.3,155.3,0,0,1,6.59-43.49,158.65,158.65,0,0,1,7.86-20.79c1.51-3.48,3.25-6.88,5-10.28.92-1.65,1.87-3.28,2.82-4.9s2-3.14,3.07-4.7a158.34,158.34,0,0,1,88.72-66.1,155.81,155.81,0,0,1,47.41-6.11,162.11,162.11,0,0,1,23.52,2.41,160.45,160.45,0,0,1,23.62,6.24,155.73,155.73,0,0,1,31.25,14.83,160.75,160.75,0,0,1,26.8,20.74,158.42,158.42,0,0,1,21.7,26.09l1.19,1.77,1.13,1.83,2.23,3.68c1.46,2.47,2.78,5,4.16,7.57s2.58,5.2,3.72,7.88,2.34,5.36,3.3,8.14c.56,1.46,1.07,2.91,1.52,4.27s.74,2.67,1,3.8c.51,2.27.75,3.9.55,4.33s-.72-.38-1.49-2c-.37-.83-.8-1.87-1.25-3.07l-.7-1.91-.81-2.08A158.29,158.29,0,0,0,204.25,55.58L200,54.28l-4.33-1.12-2.17-.55-2.19-.47-4.39-.92a157.48,157.48,0,0,0-35.78-2.5,159.35,159.35,0,0,0-18,2A154.65,154.65,0,0,0,66.49,79.09a158.81,158.81,0,0,0-23.23,21.24c.15,0,.29-.08.36,0,.26.23-.22,1.13-1.07,2.57A148.41,148.41,0,0,1,54.93,90.3,145.36,145.36,0,0,1,68.78,79.2a145.64,145.64,0,0,1,44.05-23.08A139.64,139.64,0,0,1,164,49.59,141.91,141.91,0,0,1,198.33,56,149,149,0,0,1,228.8,69.69a153.53,153.53,0,0,1,60.65,58,10.53,10.53,0,0,1,1.19,2.47c.09.42-.3-.06-.88-1.06A157.86,157.86,0,0,0,249.93,85a21.37,21.37,0,0,1,2.45,2.8c.48.73.61,1.19.34,1.31s-.94-.12-1.95-.62a38.91,38.91,0,0,1-3.88-2.28C250.4,89,253.8,91.9,257.05,95c2,1.92,3.4,3.58,3.15,3.72s-2-1.18-3.87-3a149.05,149.05,0,0,0-45.39-29.14,145.25,145.25,0,0,0-63.69-9.5c1.51.09,2.82.22,3.88.38a11.06,11.06,0,0,1,2.41.68h0c1.66,0,3.32-.08,5-.06l5,.14a140.23,140.23,0,0,1,44.86,8.49,147.09,147.09,0,0,1,21.06,9.67c1.67,1,3.38,1.91,5,2.94l4.92,3.15,4.77,3.36c1.58,1.14,3.1,2.38,4.65,3.56A144.06,144.06,0,0,1,291.4,145c.74,1.83,1.57,3.63,2.25,5.49l2,5.58,1.76,5.68c.6,1.88,1,3.82,1.53,5.74a5.54,5.54,0,0,1,.35,2.26,4.65,4.65,0,0,1-.73-1.93,143.11,143.11,0,0,0-24.16-51.29l0,.06c.39.67.35.87-.21.24a19,19,0,0,1-1.76-2.38c-.48-.74-.32-.77.19-.26a144.45,144.45,0,0,0-39.09-34.88,142.21,142.21,0,0,0-48.21-18.42,143.77,143.77,0,0,1,80.68,47.71c1.23,1.23,2.37,2.53,3.51,3.85s2.34,2.6,3.41,4a12,12,0,0,1,1.4,2.2c.07.28-.45-.21-1.05-1l-1.82-2.28a58.12,58.12,0,0,1,4.1,6.36c.85,1.71,1.22,2.82.91,3s-1.38-.92-2.7-2.54c-.69-.79-1.49-1.72-2.32-2.78s-1.69-2.25-2.67-3.43a145.66,145.66,0,0,0-36.3-32.82c-1.48-1-3.07-1.77-4.59-2.66-.8-.41-1.57-.84-2.38-1.22l-2.41-1.12a142.25,142.25,0,0,1,53.55,52.09c1.11,1.84,1.88,3.51,1.69,3.67s-1.24-1.23-2.34-3.06a141.9,141.9,0,0,0-20.65-25.45c-1-1-2-1.89-3-2.82s-2-1.88-3-2.76c-2.11-1.75-4.16-3.58-6.37-5.2a145.68,145.68,0,0,0-13.53-9.33,139.41,139.41,0,0,0-62.08-19.8A132.84,132.84,0,0,0,145.9,67,137.11,137.11,0,0,0,125,72c1.75-.47,3.55-.81,5.34-1.18,2.83-.66,5.69-1,8.51-1.52l4.23-.52,2.11-.27c.7-.07,1.4-.11,2.11-.17l4.19-.33,4.17-.14,2.08-.08c.69,0,1.38,0,2.07,0l4.13,0a141.84,141.84,0,0,1,16.29,1.46c2.69.32,5.33.91,8,1.39,1.33.25,2.63.6,3.95.9s2.64.59,3.93,1a133.84,133.84,0,0,1,30.17,12.17,130.18,130.18,0,0,1,14.06,9c2.24,1.7,4.52,3.39,6.67,5.26s4.29,3.78,6.42,5.74a5.72,5.72,0,0,1,1.46,1.76c0,.17-.62-.32-1.45-1.15-2.09-1.88-4.07-3.84-6.24-5.56L244,97.16l-3.28-2.45-1.63-1.22-1.68-1.14-3.34-2.26L230.61,88l-1.71-1c-.58-.34-1.17-.65-1.75-1l-3.51-1.93c-1.19-.62-2.4-1.19-3.59-1.78-2.37-1.23-4.86-2.22-7.31-3.31a140.59,140.59,0,0,0-15.36-5.36,127,127,0,0,0-51.59-4.1,136.91,136.91,0,0,1,50.07,4.61A133.51,133.51,0,0,1,241,96.85a19,19,0,0,1,3,2.61,2.61,2.61,0,0,1,.75.43c1.72,1.29,3.53,2.64,5.27,4.18l2.67,2.3,2.59,2.48a10.53,10.53,0,0,1,1.69,1.94C257.22,111.21,256.75,110.88,256,110.19ZM230.51,331.93l.89-.36c-.91.47-1.92.94-3.05,1.43l-4.57,1.34,2.1-.75C227.14,333.14,228.84,332.57,230.51,331.93ZM272,291.6l0,0,1.49-1.24.56-.51C273.19,290.62,272.49,291.14,272,291.6ZM3.23,196.08a165.6,165.6,0,0,0,9.36,61.19c-1.85-4.72-3.51-9.49-4.9-14.36a144.06,144.06,0,0,1-4.06-23.23A146.45,146.45,0,0,1,3.23,196.08ZM264.45,310.86c-2.17,1.68-4.06,3.18-5.95,4.42s-3.61,2.35-5.34,3.36c-1.35,1.15-2.75,2.3-4.17,3.46s-3,2.2-4.49,3.3a144,144,0,0,1-25.72,14.35c.64-.11.43.07-.07.35s-1.31.6-1.85.85l-3.31,1.49a159,159,0,0,0,27.92-13.91A169.14,169.14,0,0,0,264.45,310.86Zm36.81-61.64.39-.81-.1,2Zm.09-3.16-.51,1.38A1.89,1.89,0,0,1,301.35,246.06Zm-5.13,12.48c.44-.69.7-1.1,1-1.66Zm-17.42,2.15.12,2.7v2.7l.14-2.87v-2.87Z"/></svg>